<svg xmlns="http://www.w3.org/2000/svg" width="19" height="13" viewBox="0 0 19 13">
  <metadata><?xpacket begin="﻿" id="W5M0MpCehiHzreSzNTczkc9d"?>
<x:xmpmeta xmlns:x="adobe:ns:meta/" x:xmptk="Adobe XMP Core 5.6-c138 79.159824, 2016/09/14-01:09:01        ">
   <rdf:RDF xmlns:rdf="http://www.w3.org/1999/02/22-rdf-syntax-ns#">
      <rdf:Description rdf:about=""/>
   </rdf:RDF>
</x:xmpmeta>
                                                                                                    
                                                                                                    
                                                                                                    
                                                                                                    
                                                                                                    
                                                                                                    
                                                                                                    
                                                                                                    
                                                                                                    
                                                                                                    
                                                                                                    
                                                                                                    
                                                                                                    
                                                                                                    
                                                                                                    
                                                                                                    
                                                                                                    
                                                                                                    
                                                                                                    
                                                                                                    
                           
<?xpacket end="w"?></metadata>
<defs>
    <style>
      .cls-1 {
        fill: #7d8184;
        fill-rule: evenodd;
      }
    </style>
  </defs>
  <path id="Forma_1_копия_5" data-name="Forma 1 копия 5" class="cls-1" d="M714.383,633.038a0.31,0.31,0,0,1-.21-0.08l-3.525-3.182a0.287,0.287,0,0,1-.013-0.417,0.314,0.314,0,0,1,.433-0.014l3.525,3.184a0.287,0.287,0,0,1,.014.416A0.312,0.312,0,0,1,714.383,633.038Zm-11.767,0a0.312,0.312,0,0,1-.224-0.093,0.286,0.286,0,0,1,.013-0.416l3.527-3.184a0.316,0.316,0,0,1,.433.014,0.287,0.287,0,0,1-.013.417l-3.527,3.182A0.308,0.308,0,0,1,702.616,633.038ZM716.468,636H700.531A1.5,1.5,0,0,1,699,634.524V624.473A1.505,1.505,0,0,1,700.531,623h15.937A1.506,1.506,0,0,1,718,624.473v10.051A1.505,1.505,0,0,1,716.468,636Zm-15.937-12.41a0.9,0.9,0,0,0-.919.886v10.051a0.9,0.9,0,0,0,.919.885h15.937a0.9,0.9,0,0,0,.919-0.885V624.473a0.9,0.9,0,0,0-.919-0.886H700.531Zm7.969,7.392a1.753,1.753,0,0,1-1.125-.39l-7.867-6.6a0.289,0.289,0,0,1-.03-0.417,0.315,0.315,0,0,1,.433-0.028l7.866,6.6a1.183,1.183,0,0,0,1.444,0l7.857-6.594a0.317,0.317,0,0,1,.433.028,0.287,0.287,0,0,1-.03.416l-7.857,6.6A1.753,1.753,0,0,1,708.5,630.979Z" transform="translate(-699 -623)"/>
</svg>
